<svg xmlns="http://www.w3.org/2000/svg" viewBox="0 0 24 24" width="24" height="24">
  <path fill="#4285F4" d="M21.35 12.04c0-.79-.07-1.54-.19-2.27H12v4.51h5.44c-.25 1.34-1.01 2.48-2.14 3.25v2.69h3.47c2.04-1.88 3.21-4.65 3.21-8.18z"/>
  <path fill="#34A853" d="M12 22c2.9 0 5.34-1.02 7.12-2.77l-3.47-2.69c-.96.64-2.18 1.02-3.65 1.02-2.8 0-5.18-1.9-6.02-4.44H2.39v2.78C4.08 19.62 7.94 22 12 22z"/>
  <path fill="#FBBC05" d="M5.98 13.12c-.22-.66-.34-1.37-.34-2.12s.12-1.46.34-2.12V6.1H2.39C1.51 7.9 1 9.9 1 12s.51 4.1 1.39 5.9l3.59-2.78z"/>
  <path fill="#EA4335" d="M12 5.36c1.59 0 3.02.54 4.14 1.62l3.09-3.09C17.26 2.09 14.92 1 12 1 7.94 1 4.08 3.38 2.39 7.1l3.59 2.78c.84-2.54 3.22-4.52 6.02-4.52z"/>
</svg> 